<svg width="24" height="24" viewBox="0 0 24 24" fill="none" xmlns="http://www.w3.org/2000/svg">
<g clip-path="url(#clip0_0_17)">
<g clip-path="url(#clip1_0_17)">
<path d="M15.7289 16.4141C15.7195 16.4334 15.7007 16.4431 15.6913 16.4624C15.4379 16.7232 15.0436 16.7908 14.7245 16.6266L7.36498 12.8986C7.03643 12.7344 6.85808 12.3771 6.89563 12.0101C6.89563 11.9908 6.90501 11.9714 6.90501 11.9521C7.25234 10.1847 7.92821 8.6974 8.77304 7.45152C11.8426 2.89297 17.1745 1.5312 17.3998 1.48291C17.3998 1.48291 17.3998 1.48291 17.4092 1.48291V1.49257C17.503 1.7147 19.6996 6.89136 18.0569 12.1743C17.6157 13.594 16.8835 15.0523 15.7289 16.4141Z" stroke="#01A3C2" stroke-miterlimit="10" stroke-linecap="round"/>
<path d="M8.08777 20.8953C8.04083 20.7987 6.8299 18.0076 8.61344 15.9118C8.69793 15.8152 8.83874 15.7862 8.95138 15.8442L10.1999 16.472L11.4483 17.1094C11.561 17.1673 11.6267 17.3025 11.6079 17.4281C11.0822 20.1613 8.18164 20.8663 8.08777 20.8953Z" stroke="#01A3C2" stroke-miterlimit="10" stroke-linecap="round"/>
<path d="M12.2932 17.5345L7.94698 15.3325C7.6372 15.178 7.56211 14.782 7.80617 14.5695L8.79182 13.6907L13.0442 15.8444L12.9691 17.1869C12.9503 17.5056 12.603 17.6891 12.2932 17.5345Z" stroke="#01A3C2" stroke-miterlimit="10" stroke-linecap="round"/>
<path d="M14.4334 9.93359C15.5325 9.93359 16.4235 9.0169 16.4235 7.88611C16.4235 6.75531 15.5325 5.83862 14.4334 5.83862C13.3343 5.83862 12.4434 6.75531 12.4434 7.88611C12.4434 9.0169 13.3343 9.93359 14.4334 9.93359Z" stroke="#01A3C2" stroke-miterlimit="10" stroke-linecap="round"/>
<path d="M6.8956 12.0004L4.14519 10.6C3.86357 10.4648 3.75093 10.1171 3.89173 9.82739C4.4268 8.71673 5.34673 7.92478 6.39808 7.55777C7.14905 7.29701 7.97511 7.23906 8.77302 7.43222C7.92818 8.6781 7.25231 10.1654 6.90499 11.9328C6.90499 11.9521 6.90499 11.9811 6.8956 12.0004Z" stroke="#01A3C2" stroke-miterlimit="10" stroke-linecap="round"/>
<path d="M19.2021 17.5925C19.0612 17.8822 18.7233 17.9981 18.4511 17.8532L15.6913 16.4528C15.7007 16.4335 15.7194 16.4239 15.7288 16.4046C16.8741 15.0428 17.6156 13.5844 18.0662 12.1357C18.7045 12.6766 19.1645 13.372 19.418 14.1446C19.7747 15.2456 19.7277 16.4818 19.2021 17.5925Z" stroke="#01A3C2" stroke-miterlimit="10" stroke-linecap="round"/>
<path d="M5.49694 14.0864L3.35669 17.9496" stroke="#01A3C2" stroke-miterlimit="10" stroke-linecap="round"/>
<path d="M4.96186 19.3308L3.76031 21.4266" stroke="#01A3C2" stroke-miterlimit="10" stroke-linecap="round"/>
<path d="M11.27 22.5276L10.0309 24.633" stroke="#01A3C2" stroke-miterlimit="10" stroke-linecap="round"/>
<path d="M15.7195 18.9639L13.5698 22.827" stroke="#01A3C2" stroke-miterlimit="10" stroke-linecap="round"/>
<path d="M15.7289 16.4141C15.7195 16.4334 15.7007 16.4431 15.6913 16.4624C15.4379 16.7232 15.0436 16.7908 14.7245 16.6266L7.36498 12.8986C7.03643 12.7344 6.85808 12.3771 6.89563 12.0101C6.89563 11.9908 6.90501 11.9714 6.90501 11.9521C7.25234 10.1847 7.92821 8.6974 8.77304 7.45152C11.8426 2.89297 17.1745 1.5312 17.3998 1.48291C17.3998 1.48291 17.3998 1.48291 17.4092 1.48291V1.49257C17.503 1.7147 19.6996 6.89136 18.0569 12.1743C17.6157 13.594 16.8835 15.0523 15.7289 16.4141Z" fill="white" stroke="#01A3C2" stroke-miterlimit="10" stroke-linecap="round"/>
<path d="M8.08777 20.8953C8.04083 20.7987 6.8299 18.0076 8.61344 15.9118C8.69793 15.8152 8.83874 15.7862 8.95138 15.8442L10.1999 16.472L11.4483 17.1094C11.561 17.1673 11.6267 17.3025 11.6079 17.4281C11.0822 20.1613 8.18164 20.8663 8.08777 20.8953Z" fill="#01A3C2" stroke="#01A3C2" stroke-miterlimit="10" stroke-linecap="round"/>
<path d="M12.2932 17.5345L7.94698 15.3325C7.6372 15.178 7.56211 14.782 7.80617 14.5695L8.79182 13.6907L13.0442 15.8444L12.9691 17.1869C12.9503 17.5056 12.603 17.6891 12.2932 17.5345Z" fill="white" stroke="#01A3C2" stroke-miterlimit="10" stroke-linecap="round"/>
<path d="M14.4334 9.93359C15.5325 9.93359 16.4235 9.0169 16.4235 7.88611C16.4235 6.75531 15.5325 5.83862 14.4334 5.83862C13.3343 5.83862 12.4434 6.75531 12.4434 7.88611C12.4434 9.0169 13.3343 9.93359 14.4334 9.93359Z" stroke="#01A3C2" stroke-miterlimit="10" stroke-linecap="round"/>
<path d="M6.8956 12.0004L4.14519 10.6C3.86357 10.4648 3.75093 10.1171 3.89173 9.82739C4.4268 8.71673 5.34673 7.92478 6.39808 7.55777C7.14905 7.29701 7.97511 7.23906 8.77302 7.43222C7.92818 8.6781 7.25231 10.1654 6.90499 11.9328C6.90499 11.9521 6.90499 11.9811 6.8956 12.0004Z" fill="#01A3C2" stroke="#01A3C2" stroke-miterlimit="10" stroke-linecap="round"/>
<path d="M19.2021 17.5925C19.0612 17.8822 18.7233 17.9981 18.4511 17.8532L15.6913 16.4528C15.7007 16.4335 15.7194 16.4239 15.7288 16.4046C16.8741 15.0428 17.6156 13.5844 18.0662 12.1357C18.7045 12.6766 19.1645 13.372 19.418 14.1446C19.7747 15.2456 19.7277 16.4818 19.2021 17.5925Z" fill="#01A3C2" stroke="#01A3C2" stroke-miterlimit="10" stroke-linecap="round"/>
<path d="M5.49694 14.0864L3.35669 17.9496" stroke="#01A3C2" stroke-miterlimit="10" stroke-linecap="round"/>
<path d="M4.96186 19.3308L3.76031 21.4266" stroke="#01A3C2" stroke-miterlimit="10" stroke-linecap="round"/>
<path d="M11.27 22.5276L10.0309 24.633" stroke="#01A3C2" stroke-miterlimit="10" stroke-linecap="round"/>
<path d="M15.7195 18.9639L13.5698 22.827" stroke="#01A3C2" stroke-miterlimit="10" stroke-linecap="round"/>
</g>
</g>
<defs>
<clipPath id="clip0_0_17">
<rect width="24" height="24" fill="white"/>
</clipPath>
<clipPath id="clip1_0_17">
<rect width="17" height="24" fill="white" transform="translate(3 1)"/>
</clipPath>
</defs>
</svg>
